<?xml version="1.0" encoding="utf-8"?>
<!-- Generator: Adobe Illustrator 23.0.4, SVG Export Plug-In . SVG Version: 6.00 Build 0)  -->
<svg version="1.1" id="レイヤー_1" xmlns="http://www.w3.org/2000/svg" xmlns:xlink="http://www.w3.org/1999/xlink" x="0px"
	 y="0px" viewBox="0 0 50 50" style="enable-background:new 0 0 50 50;" xml:space="preserve">
<style type="text/css">
	.st0{fill:#37B2F4;}
	.st1{enable-background:new    ;}
	.st2{fill:#FFFFFF;}
</style>
<g id="entry" transform="translate(-827 176)">
	<circle id="楕円形_10" class="st0" cx="852" cy="-151" r="25"/>
	<g class="st1">
		<path class="st2" d="M846.7-148.2h3.3c0.2,0,1,0,1,0.9s-0.8,0.9-1,0.9h-8.6c-0.2,0-1,0-1-0.9c0-0.9,0.7-0.9,1-0.9h3.4v-4.6h-2.6
			c-0.2,0-1,0-1-0.9c0-0.9,0.7-0.9,1-0.9h7.1c0.2,0,1,0,1,0.9s-0.7,0.9-1,0.9h-2.6V-148.2z"/>
		<path class="st2" d="M862.2-151.9c0,0.6-1.7,2.8-3.8,4.3c-2.1,1.5-4.3,2.1-4.9,2.1c-0.7,0-1-0.6-1-1.1c0-0.7,0.4-0.8,1.1-0.9
			c2.6-0.6,4.9-2.2,6.4-4.4c0.6-0.8,0.7-0.9,1.1-0.9C861.5-152.9,862.2-152.5,862.2-151.9z M855.2-154.5c1.3,0.6,1.6,0.8,1.6,1.4
			c0,0.5-0.4,1.1-1,1.1c-0.2,0-0.2,0-1.2-0.5c-0.3-0.1-1.6-0.7-1.8-0.9c-0.1-0.1-0.3-0.3-0.3-0.6c0-0.5,0.3-1,1-1
			C853.9-155.1,855.1-154.6,855.2-154.5z"/>
	</g>
</g>
</svg>
