<?xml version="1.0" encoding="utf-8"?>
<!-- Generator: Adobe Illustrator 23.0.4, SVG Export Plug-In . SVG Version: 6.00 Build 0)  -->
<svg version="1.1" id="レイヤー_1" xmlns="http://www.w3.org/2000/svg" xmlns:xlink="http://www.w3.org/1999/xlink" x="0px"
	 y="0px" viewBox="0 0 50 50" style="enable-background:new 0 0 50 50;" xml:space="preserve">
<style type="text/css">
	.st0{fill:#E30900;}
	.st1{enable-background:new    ;}
	.st2{fill:#FFFFFF;}
</style>
<g id="naitei" transform="translate(-827 537)">
	<circle id="楕円形_15" class="st0" cx="852" cy="-512" r="25"/>
	<g class="st1">
		<path class="st2" d="M842.6-506.7c0,0.3-0.1,0.9-0.9,0.9c-0.7,0-1-0.2-1-0.9v-7.3c0-1.3,0.6-1.7,1.7-1.7h2.5v-0.7
			c0-0.3,0-0.9,0.9-0.9c0.7,0,1,0.3,1,0.9v0.7h2.6c1.1,0,1.7,0.4,1.7,1.7v6.4c0,1.7-1,1.7-2.3,1.7c-0.3,0-1,0-1.2-0.1
			c-0.5-0.2-0.5-0.7-0.5-0.9c0-0.6,0.3-0.9,0.9-0.9c0.2,0,0.9,0,1,0c0.2,0,0.3-0.2,0.3-0.4v-0.9c-0.1,0.4-0.4,0.7-0.9,0.7
			c-0.4,0-0.8-0.3-1.4-1.1c-0.7-0.8-0.9-1.7-1.1-2.1c-0.2,0.6-0.5,1.5-1.3,2.3c-0.7,0.8-1,0.8-1.2,0.8c-0.4,0-0.7-0.3-0.8-0.6
			V-506.7z M842.6-509.9c0.1-0.2,0.9-0.9,1.1-1.1c0.4-0.5,1-1.4,1.2-2.9H843c-0.3,0-0.4,0.1-0.4,0.4V-509.9z M847-513.9
			c0.3,2.1,1.3,3,2.1,3.8c0.1,0.1,0.2,0.2,0.3,0.4v-3.8c0-0.2-0.1-0.4-0.4-0.4H847z"/>
		<path class="st2" d="M862.8-507.9c0.4,0,0.9,0.1,0.9,0.9c0,0.9-0.6,0.9-0.9,0.9h-3.4c-2.1,0-3.4-0.6-4.3-1.8
			c-0.3,0.8-0.6,1.2-0.9,1.6c-0.1,0.2-0.3,0.3-0.7,0.3c-0.5,0-1-0.4-1-0.9c0-0.2,0.1-0.4,0.3-0.8c0.9-1.3,1.2-2.5,1.3-3.3
			c0.1-0.5,0.2-0.9,0.9-0.9c0.3,0,1,0.1,1,0.7c0,0.3-0.2,1.2-0.3,1.5c0.2,0.3,0.6,1,1.5,1.4v-3.9h-2.4c-0.5,0-0.9-0.1-0.9-0.9
			c-0.1,0-0.2,0-0.3,0c-0.5,0-0.9-0.2-0.9-0.9v-1c0-1.1,0.5-1.5,1.5-1.5h3.1v-0.3c0-0.6,0.5-0.7,0.9-0.7c0.6,0,1,0.1,1,0.7v0.3h3.1
			c0.9,0,1.5,0.3,1.5,1.5v1c0,0.4-0.1,0.9-0.9,0.9c-0.2,0-0.3,0-0.4,0c0,0.5-0.2,0.9-0.9,0.9h-2.5v1.2h2.8c0.2,0,0.9,0,0.9,0.8
			c0,0.6-0.2,0.9-0.9,0.9h-2.8v1.5c0.3,0,0.5,0,0.7,0H862.8z M861.4-513.8c0.2,0,0.2,0,0.3,0v-0.7c0-0.2-0.1-0.3-0.3-0.3h-6.7
			c-0.2,0-0.3,0.1-0.3,0.3v0.7c0.1,0,0.2,0,0.3,0H861.4z"/>
	</g>
</g>
</svg>
