<?xml version="1.0" encoding="utf-8"?>
<!-- Generator: Adobe Illustrator 23.0.4, SVG Export Plug-In . SVG Version: 6.00 Build 0)  -->
<svg version="1.1" id="レイヤー_1" xmlns="http://www.w3.org/2000/svg" xmlns:xlink="http://www.w3.org/1999/xlink" x="0px"
	 y="0px" viewBox="0 0 50 50" style="enable-background:new 0 0 50 50;" xml:space="preserve">
<style type="text/css">
	.st0{fill:#2467FF;}
	.st1{enable-background:new    ;}
	.st2{fill:#FFFFFF;}
</style>
<g id="oinori" transform="translate(-827 594)">
	<circle id="楕円形_16" class="st0" cx="852" cy="-569" r="25"/>
	<g class="st1">
		<path class="st2" d="M850-572.6c0.6,0,1.1,0.3,1.1,1.1c0,0.5-0.2,1.2-1,2.4c0.2,0.2,0.5,0.5,0.6,0.6c0.4,0.4,0.6,0.6,0.6,1
			c0,0.4-0.3,0.8-0.8,0.8c-0.3,0-0.5-0.2-0.8-0.6v3.5c0,0.7-0.3,0.9-1,0.9c-0.7,0-0.8-0.5-0.8-0.9v-3.1c-0.3,0.3-0.5,0.3-0.8,0.3
			c-0.5,0-1-0.5-1-1s0.3-0.7,1-1.2c1.3-1,1.9-2,1.9-2.1c0-0.1-0.2-0.1-0.2-0.1h-1.6c-0.6,0-0.9-0.3-0.9-0.9c0-0.8,0.7-0.8,0.9-0.8
			h0.7v-0.8c0-0.6,0.3-0.9,1-0.9c0.8,0,0.8,0.6,0.8,0.9v0.8H850z M856.8-570.7c0.2,0,0.9,0,0.9,0.9c0,0.8-0.3,0.9-0.9,0.9h-0.5v5.2
			c0,0.3,0,0.9-0.9,0.9c-0.7,0-1-0.3-1-0.9v-5.2h-1.2v0.3c0,0.3,0,2.1-0.7,3.9c-0.6,1.6-0.9,1.8-1.4,1.8c-0.5,0-1.1-0.4-1.1-0.9
			c0-0.3,0.1-0.4,0.2-0.7c0.4-0.8,1.1-2,1.1-4.6v-3.2c0-1.2,0.8-1.3,1.6-1.4c0.9-0.1,1.8-0.2,2.2-0.3c0.2,0,1.2-0.3,1.4-0.3
			c0.5,0,0.8,0.6,0.8,1c0,0.7-0.4,0.8-1.8,1c-0.4,0.1-1.3,0.2-2,0.2c-0.3,0-0.3,0.1-0.3,0.3v1H856.8z"/>
	</g>
</g>
</svg>
