<?xml version="1.0" encoding="utf-8"?>
<!-- Generator: Adobe Illustrator 23.0.4, SVG Export Plug-In . SVG Version: 6.00 Build 0)  -->
<svg version="1.1" id="レイヤー_1" xmlns="http://www.w3.org/2000/svg" xmlns:xlink="http://www.w3.org/1999/xlink" x="0px"
	 y="0px" viewBox="0 0 50 50" style="enable-background:new 0 0 50 50;" xml:space="preserve">
<style type="text/css">
	.st0{fill:#FF7600;}
	.st1{enable-background:new    ;}
	.st2{fill:#FFFFFF;}
</style>
<g id="saishuu" transform="translate(-827 476)">
	<circle id="楕円形_14" class="st0" cx="852" cy="-451" r="25"/>
	<g class="st1">
		<path class="st2" d="M845.8-445.6c0,0.2,0,0.8-0.8,0.8c-0.9,0-0.9-0.4-0.9-0.9c-1.5,0.3-3,0.4-3.2,0.4c-0.3,0-0.7-0.2-0.7-0.8
			c0-0.6,0.4-0.6,0.8-0.7v-3.8c-0.4,0-0.8,0-0.8-0.6c0-0.7,0.6-0.7,0.7-0.7h9.9c0.3,0,0.8,0.1,0.8,0.7c0,0.5-0.3,0.7-0.8,0.7h-5.1
			V-445.6z M850.8-453.8c0,1.2-0.2,1.5-1.5,1.5h-6.6c-1.2,0-1.5-0.2-1.5-1.5v-0.7c0-1.2,0.2-1.5,1.5-1.5h6.6c1.2,0,1.5,0.2,1.5,1.5
			V-453.8z M844.1-450.6h-1.4v0.5h1.4V-450.6z M844.1-449.1h-1.4v0.5h1.4V-449.1z M842.7-447c0.7-0.1,0.7-0.1,1.4-0.2v-0.4h-1.4
			V-447z M849-454.5v-0.2c0-0.1-0.1-0.2-0.2-0.2h-5.5c-0.1,0-0.2,0.1-0.2,0.2v0.2H849z M849-453.7h-6v0.2c0,0.1,0.1,0.2,0.2,0.2h5.5
			c0.2,0,0.2-0.1,0.2-0.2V-453.7z M850-450.2c0.6,0,1.2,0,1.2,0.8c0,0.8-0.6,1.8-1.2,2.4c0.3,0.1,0.5,0.2,1,0.4
			c0.3,0.1,0.6,0.2,0.6,0.7c0,0.5-0.4,0.9-0.9,0.9c-0.2,0-0.8-0.1-2.1-0.9c-1.1,0.7-1.8,0.8-2,0.8c-0.6,0-0.8-0.5-0.8-0.9
			c0-0.5,0.3-0.6,0.6-0.7c0.5-0.1,0.7-0.3,0.8-0.3c-0.2-0.2-0.3-0.4-0.4-0.4c-0.5-0.7-0.6-0.8-0.6-1c0-0.2,0.1-0.5,0.4-0.6h-0.2
			c-0.5,0-0.7-0.2-0.7-0.7c0-0.6,0.5-0.7,0.7-0.7H850z M847.6-448.9c0.1,0,0.2,0.1,0.4,0.4c0.5,0.6,0.6,0.6,0.7,0.7
			c0.5-0.6,0.7-0.9,0.7-1c0-0.1-0.1-0.1-0.3-0.1H847.6z"/>
		<path class="st2" d="M862-455.3c0.5,0,1.2,0,1.2,1c0,0.9-0.5,1.7-1.5,2.8c0.2,0.1,0.4,0.3,0.9,0.4c0.9,0.4,1.2,0.5,1.2,1.1
			c0,0.4-0.2,1.1-0.8,1.1c-0.5,0-1.8-0.7-2.6-1.3c-0.2,0.1-0.3,0.2-0.7,0.5c0.4,0,1.4,0.6,1.4,0.6c1.1,0.6,1.1,0.8,1.1,1.1
			c0,0.4-0.3,0.9-0.8,0.9c-0.2,0-0.3-0.1-0.5-0.2c-0.2-0.1-0.9-0.5-1.1-0.6c-0.7-0.4-0.9-0.5-0.9-0.9c0-0.2,0.1-0.4,0.2-0.5
			c-0.4,0.2-1.1,0.6-1.4,0.6c-0.3,0-0.5-0.1-0.7-0.6c-0.2,0.1-0.3,0.1-0.4,0.1c-0.4,0-0.5-0.3-0.6-0.6c-0.2,0-0.3,0-0.5,0.1v4.3
			c0,0.2,0,0.7-0.7,0.7c-0.7,0-0.7-0.6-0.7-0.7v-4.2c-0.5,0-0.9,0.1-1.1,0.1c-0.2,0-0.8,0-0.8-0.8c0-0.7,0.4-0.7,0.9-0.8
			c0.1-0.1,0.5-0.6,0.6-0.7c-0.2-0.3-0.4-0.5-0.8-0.9c-0.5-0.5-0.6-0.6-0.6-0.9c0-0.4,0.3-0.9,0.8-0.9c0.1,0,0.2,0,0.2,0
			c0.3-0.4,0.5-0.7,0.7-1.1c0.2-0.3,0.3-0.6,0.7-0.6c0.4,0,0.9,0.3,0.9,0.6c0,0.2-0.1,0.4-0.4,0.9c-0.3,0.5-0.5,0.8-0.8,1.1
			c0.2,0.2,0.2,0.3,0.3,0.3c0.4-0.6,0.5-0.8,0.9-1.3c0.2-0.3,0.3-0.5,0.6-0.5c0.3,0,0.9,0.3,0.9,0.7c0,0.1,0,0.3-0.5,1
			c-0.6,0.7-1.2,1.4-1.8,2.1c0.3,0,0.7,0,0.9-0.1c-0.1-0.5-0.2-0.5-0.2-0.6c0-0.3,0.4-0.5,0.6-0.5c0.4,0,0.5,0.2,0.5,0.4
			c0.2,0.4,0.3,0.9,0.5,1.5c0.1,0,0.1-0.1,0.3-0.1c1.2-0.5,1.2-0.5,1.6-0.7c-0.2-0.2-0.4-0.5-0.7-1c-0.4,0.4-0.6,0.6-0.9,0.6
			c-0.4,0-0.9-0.4-0.9-0.9c0-0.3,0.2-0.5,0.4-0.7c0.5-0.5,1.1-1.1,1.6-1.9c0.6-0.9,0.6-1,1.1-1c0.2,0,0.9,0.1,0.9,0.7
			c0,0.1,0,0.2,0,0.2H862z M853.8-448.7c0,0.6-0.1,2-0.2,2.4c0,0.3-0.1,0.7-0.6,0.7c-0.1,0-0.7,0-0.7-0.6c0-0.2,0.1-0.8,0.2-1
			c0.1-0.6,0.1-0.9,0.2-1.5c0-0.5,0.2-0.6,0.6-0.6C853.8-449.4,853.8-448.9,853.8-448.7z M857-448.5c0.1,0.9,0.2,1.7,0.2,1.9
			c0,0.6-0.6,0.6-0.7,0.6c-0.5,0-0.6-0.2-0.6-0.9c-0.1-1-0.1-1.1-0.1-1.3c-0.1-0.5-0.1-0.5-0.1-0.6c0-0.4,0.3-0.5,0.7-0.5
			C856.9-449.4,856.9-449.1,857-448.5z M862.4-446.8c0.4,0.1,0.8,0.3,0.8,0.8c0,0.5-0.4,1-0.9,1c-0.2,0-0.3,0-1-0.3
			c-0.9-0.3-1.8-0.5-2.9-0.8c-0.5-0.1-0.9-0.2-0.9-0.8c0-0.4,0.2-0.9,0.8-0.9C859.3-447.7,862.1-446.9,862.4-446.8z M859.6-453.8
			c0,0,0,0-0.1,0.1c0.3,0.6,0.6,0.9,0.9,1.2c0.3-0.3,0.9-1,0.9-1.2c0-0.1-0.1-0.1-0.2-0.1H859.6z"/>
	</g>
</g>
</svg>
