<?xml version="1.0" encoding="utf-8"?>
<!-- Generator: Adobe Illustrator 23.0.4, SVG Export Plug-In . SVG Version: 6.00 Build 0)  -->
<svg version="1.1" id="レイヤー_1" xmlns="http://www.w3.org/2000/svg" xmlns:xlink="http://www.w3.org/1999/xlink" x="0px"
	 y="0px" viewBox="0 0 50 50" style="enable-background:new 0 0 50 50;" xml:space="preserve">
<style type="text/css">
	.st0{fill:#5BB93A;}
	.st1{enable-background:new    ;}
	.st2{fill:#FFFFFF;}
</style>
<g id="sanji" transform="translate(-827 358)">
	<circle id="楕円形_12" class="st0" cx="852" cy="-333" r="25"/>
	<g class="st1">
		<path class="st2" d="M850.7-329.3c0.2,0,0.9,0,0.9,0.9c0,0.8-0.4,0.9-0.9,0.9h-9.5c-0.2,0-0.9,0-0.9-0.9c0-0.8,0.4-0.9,0.9-0.9
			H850.7z M850.2-337.6c0.2,0,0.9,0,0.9,0.9c0,0.8-0.4,0.9-0.9,0.9h-8.4c-0.2,0-0.9,0-0.9-0.9c0-0.7,0.3-0.9,0.9-0.9H850.2z
			 M849.6-333.6c0.2,0,0.9,0,0.9,0.9c0,0.8-0.4,0.9-0.9,0.9h-7.1c-0.2,0-0.9,0-0.9-0.9c0-0.8,0.5-0.9,0.9-0.9H849.6z"/>
		<path class="st2" d="M855.3-331.5c0,0.6-0.9,2.7-1,2.9c-0.4,1-0.6,1.2-1.1,1.2c-0.6,0-1-0.4-1-0.9c0-0.2,0-0.3,0.4-1.1
			c0.3-0.5,0.5-1,0.9-2.1c0.2-0.5,0.3-0.8,0.8-0.8C854.6-332.3,855.3-332.1,855.3-331.5z M854.5-337.3c0.3,0.2,0.8,0.6,0.9,0.9
			c0.1,0.1,0.1,0.2,0.1,0.4c0,0.5-0.5,1-0.9,1c-0.3,0-0.5-0.2-0.7-0.4c-0.2-0.2-0.6-0.6-1-0.9c-0.3-0.3-0.4-0.4-0.4-0.6
			c0-0.3,0.2-0.9,0.9-0.9C853.6-338,853.7-338,854.5-337.3z M858.3-333.6c0-0.4,0.1-0.9,0.8-0.9c0.7,0,1,0.2,1,0.9v0.5
			c0,0.1,0.1,1.3,0.8,2.4c0.6,1.1,1.5,1.7,2.2,2c0.4,0.2,0.6,0.4,0.6,0.8c0,0.5-0.3,1.1-0.9,1.1c-0.4,0-1.2-0.5-1.7-0.9
			c-1.2-1.1-1.5-2-1.7-2.5c-0.1,0.5-0.5,1.5-1.8,2.5c-0.6,0.5-1.5,1-1.9,1c-0.5,0-0.9-0.6-0.9-1.1c0-0.4,0.3-0.6,0.6-0.7
			c0.6-0.3,1.6-0.7,2.2-1.9c0.3-0.6,0.6-1.8,0.6-2.4V-333.6z M857.7-335c-0.4,0.8-0.9,1.4-1.2,1.8c-0.3,0.3-0.5,0.4-0.8,0.4
			c-0.5,0-1-0.5-1-1c0-0.3,0-0.3,0.6-1c0.8-1,1.3-2.2,1.5-2.8c0.2-0.5,0.3-0.8,0.8-0.8c0.2,0,1,0.1,1,0.8c0,0.2,0,0.4-0.2,0.9h3.6
			c0.4,0,1.5,0,1.5,1.2c0,0.4-0.1,1.1-0.6,2.2c-0.5,1.1-0.7,1.3-1.1,1.3c-0.5,0-1-0.3-1-0.8c0-0.2,0-0.3,0.4-1
			c0.1-0.1,0.4-0.8,0.4-1c0-0.2-0.2-0.2-0.4-0.2H857.7z"/>
	</g>
</g>
</svg>
