<?xml version="1.0" encoding="utf-8"?>
<!-- Generator: Adobe Illustrator 23.0.4, SVG Export Plug-In . SVG Version: 6.00 Build 0)  -->
<svg version="1.1" id="レイヤー_1" xmlns="http://www.w3.org/2000/svg" xmlns:xlink="http://www.w3.org/1999/xlink" x="0px"
	 y="0px" viewBox="0 0 50 50" style="enable-background:new 0 0 50 50;" xml:space="preserve">
<style type="text/css">
	.st0{fill:#E25EB9;}
	.st1{enable-background:new    ;}
	.st2{fill:#FFFFFF;}
</style>
<g id="shorui" transform="translate(-827 238)">
	<circle id="楕円形_9" class="st0" cx="852" cy="-213" r="25"/>
	<g class="st1">
		<path class="st2" d="M851-216.4c0.4,0,0.7,0.2,0.7,0.6c0,0.4-0.3,0.6-0.7,0.6h-0.5c0,0.5-0.1,0.8-0.3,1c-0.2,0.2-0.6,0.2-1.1,0.2
			h-2.4v0.3h3.8c0.1,0,0.5,0,0.5,0.4s-0.4,0.4-0.5,0.4h-3.8v0.3h4.2c0.2,0,0.7,0,0.7,0.6s-0.5,0.6-0.7,0.6h-10c-0.2,0-0.7,0-0.7-0.6
			c0-0.6,0.5-0.6,0.7-0.6h3.9v-0.3h-3.4c-0.1,0-0.5,0-0.5-0.4c0-0.4,0.3-0.4,0.5-0.4h3.4v-0.3h-3.2c-0.1,0-0.5,0-0.5-0.4
			s0.4-0.4,0.5-0.4h3.2v-0.3h-4c-0.2,0-0.7,0-0.7-0.6c0-0.6,0.4-0.6,0.7-0.6h4v-0.3h-3.1c-0.1,0-0.6,0-0.6-0.5
			c0-0.5,0.4-0.5,0.6-0.5h3.1v-0.2c0-0.5,0.7-0.5,0.8-0.5c0.2,0,1,0,1,0.5v0.2h2.4c1.1,0,1.4,0.2,1.4,1.2H851z M850.5-208.4
			c0,1.1-0.5,1.3-1.4,1.3h-6.2c-0.9,0-1.4-0.2-1.4-1.3v-1.3c0-1.1,0.5-1.3,1.4-1.3h6.2c0.9,0,1.4,0.2,1.4,1.3V-208.4z M848.6-209.5
			v-0.2c0-0.1-0.1-0.2-0.2-0.2h-4.9c-0.1,0-0.2,0.1-0.2,0.2v0.2H848.6z M848.6-208.6h-5.4v0.2c0,0.1,0.1,0.2,0.2,0.2h4.9
			c0.1,0,0.2-0.1,0.2-0.2V-208.6z M848.7-216.2v-0.2c0-0.1-0.1-0.2-0.2-0.2h-1.7v0.4H848.7z M848.7-215.2h-1.9v0.4h1.7
			c0.2,0,0.2-0.1,0.2-0.2V-215.2z"/>
		<path class="st2" d="M863-217.9c0.2,0,0.8,0,0.8,0.8c0,0.8-0.5,0.8-0.8,0.8h-1.3c-0.1,0.3-0.1,0.4-0.2,0.6h0.4
			c1.2,0,1.5,0.2,1.5,1.5v3.4c0,1.2-0.2,1.5-1.5,1.5h-2.1c-1.2,0-1.5-0.2-1.5-1.5v-3.4c0-1.3,0.3-1.5,1.5-1.5
			c0.1-0.3,0.1-0.4,0.1-0.6h-1.2c-0.3,0-0.8,0-0.8-0.9c-0.3,0.8-0.6,0.8-0.9,0.9h0.3c0.3,0,0.7,0,0.7,0.7c0,0.7-0.4,0.7-0.7,0.7
			h-0.8c0.3,0.3,0.3,0.3,1.1,1c0.1,0.1,0.4,0.3,0.4,0.7c0,0.4-0.3,0.8-0.7,0.8c-0.2,0-0.4-0.1-0.9-0.6c-0.2-0.3-0.4-0.5-0.5-0.6v0.6
			c0,0.2,0,0.6-0.4,0.7c0.3,0.2,0.3,0.4,0.3,0.7h1.2c0.2,0,0.9,0,0.9,0.8c0,0.8-0.7,0.8-0.9,0.8h-0.9c0.3,0.5,0.6,0.8,1.2,1.3
			c0.3,0.2,0.3,0.4,0.3,0.6c0.1-0.1,0.8-0.4,1-0.5c0.1-0.1,0.6-0.4,0.7-0.5c0.1,0,0.2-0.1,0.3-0.1c0.5,0,0.8,0.4,0.8,0.8
			c0,0.3-0.1,0.5-1,1.1c-0.3,0.2-0.9,0.6-1.2,0.6c-0.4,0-0.7-0.4-0.8-0.8c-0.2,0.3-0.5,0.3-0.6,0.3c-0.6,0-1.3-1.1-1.6-1.6
			c-0.5,1-1.3,2.1-2,2.1c-0.5,0-0.9-0.4-0.9-0.9c0-0.3,0.1-0.5,0.4-0.7c0.7-0.6,1-0.8,1.3-1.6h-0.9c-0.2,0-0.9,0-0.9-0.8
			c0-0.8,0.7-0.8,0.9-0.8h1.2c0-0.3,0-0.6,0.4-0.8c-0.3-0.2-0.3-0.4-0.3-0.7v-0.5c-0.1,0.1-0.3,0.4-0.6,0.6
			c-0.5,0.5-0.7,0.5-0.9,0.5c-0.4,0-0.8-0.4-0.8-0.9c0-0.4,0.1-0.5,0.7-0.9c0.4-0.3,0.6-0.5,0.8-0.7H853c-0.2,0-0.7,0-0.7-0.7
			c0-0.6,0.3-0.7,0.7-0.7h1.4v-1.1c0-0.2,0-0.8,0.7-0.8c0.6,0,0.8,0.2,0.8,0.8v1.1h1c-0.3,0-0.7-0.2-0.7-0.6c0-0.1,0-0.2,0.3-0.8
			c0.2-0.3,0.3-0.4,0.6-0.4c0.3,0,0.8,0.1,0.8,0.6c0.2-0.3,0.4-0.3,0.7-0.3H863z M853.8-217.8c0.1,0.2,0.3,0.6,0.3,0.8
			c0,0.3-0.3,0.6-0.9,0.6c-0.3,0-0.4-0.1-0.6-0.4c-0.1-0.2-0.3-0.6-0.3-0.7c0-0.4,0.5-0.6,0.8-0.6
			C853.5-218.1,853.7-218.1,853.8-217.8z M859.9-214h1.7v-0.3c0-0.1-0.1-0.2-0.2-0.2h-1.2c-0.2,0-0.2,0.1-0.2,0.2V-214z
			 M861.6-212.9h-1.7v0.5h1.7V-212.9z M859.9-211.3v0.4c0,0.1,0.1,0.2,0.2,0.2h1.2c0.2,0,0.2-0.1,0.2-0.2v-0.4H859.9z M862.5-209
			c0.3,0.3,0.5,0.4,0.9,0.6c0.1,0.1,0.3,0.2,0.3,0.6c0,0.4-0.4,0.9-0.8,0.9c-0.2,0-0.4,0-1.3-0.8c-0.6-0.5-0.7-0.7-0.7-0.9
			c0-0.3,0.2-0.8,0.9-0.8C862.1-209.4,862.1-209.3,862.5-209z"/>
	</g>
</g>
</svg>
