<svg xmlns="http://www.w3.org/2000/svg" viewBox="0 0 50 50"><defs><style>.cls-1{fill:#ffc400;}.cls-2{isolation:isolate;}.cls-3{fill:#4b4b4b;}</style></defs><title>yoji</title><g id="レイヤー_2" data-name="レイヤー 2"><g id="レイヤー_1-2" data-name="レイヤー 1"><g id="yoji"><circle id="楕円形_13" data-name="楕円形 13" class="cls-1" cx="25" cy="25" r="25"/><g id="四次" class="cls-2"><g class="cls-2"><path class="cls-3" d="M24.24,28.84c0,1.3-.63,1.63-1.63,1.63H15.4c-1,0-1.64-.35-1.64-1.63V22c0-1.28.6-1.64,1.64-1.64h7.21c1,0,1.63.33,1.63,1.64Zm-5-6.8h-1V24.1c0,2.24-1,4-1.81,4a1,1,0,0,1-1-.88.9.9,0,0,1,.29-.61,3.4,3.4,0,0,0,.9-2.55V22h-.85a.32.32,0,0,0-.35.36v6a.31.31,0,0,0,.35.35h6.3a.32.32,0,0,0,.36-.35V27c-.32.73-.56.73-1.91.72s-1.35-.39-1.35-1.49Zm1.6,3.83c0,.23,0,.23.43.23.22,0,.23-.23.24-.44s0-.74.58-.74a.8.8,0,0,1,.41.1V22.4a.32.32,0,0,0-.36-.36h-1.3Z"/><path class="cls-3" d="M28.29,26.46a15.36,15.36,0,0,1-1,2.94c-.42,1-.58,1.2-1.07,1.2a1,1,0,0,1-1-.86c0-.22,0-.27.44-1.08a14.93,14.93,0,0,0,.87-2.14c.16-.45.28-.79.81-.79C27.64,25.73,28.29,25.91,28.29,26.46Zm-.83-5.79a8.41,8.41,0,0,1,.91.85.55.55,0,0,1,.13.38,1,1,0,0,1-.92,1c-.3,0-.46-.18-.69-.42s-.64-.58-1-.87-.42-.37-.42-.63a.91.91,0,0,1,.93-.91C26.56,20.05,26.69,20.05,27.46,20.67Zm3.81,3.74c0-.38.1-.87.84-.87s1,.2,1,.87v.51a5.75,5.75,0,0,0,.76,2.36,5.32,5.32,0,0,0,2.18,2c.37.2.56.36.56.75a1,1,0,0,1-.9,1.06,3.49,3.49,0,0,1-1.68-.95,5.86,5.86,0,0,1-1.7-2.54,5.4,5.4,0,0,1-3.67,3.53A1.08,1.08,0,0,1,27.77,30c0-.44.29-.6.62-.75a4.42,4.42,0,0,0,2.25-1.87A6.58,6.58,0,0,0,31.27,25ZM30.72,23a10.38,10.38,0,0,1-1.18,1.79,1,1,0,0,1-.75.43,1.08,1.08,0,0,1-1-1c0-.29,0-.34.59-1a10.69,10.69,0,0,0,1.54-2.77c.16-.48.27-.78.81-.78.24,0,1,.11,1,.75a2.19,2.19,0,0,1-.23.85h3.62c.42,0,1.53,0,1.53,1.18a6.05,6.05,0,0,1-.55,2.19c-.46,1.1-.69,1.3-1.07,1.3s-1-.32-1-.79c0-.23,0-.3.38-1a3.57,3.57,0,0,0,.38-1c0-.22-.19-.22-.37-.22Z"/></g></g></g></g></g></svg>